<svg width="100" height="100" viewBox="0 0 100 100" fill="none" xmlns="http://www.w3.org/2000/svg">
<g clip-path="url(#clip0_1_28)">
<rect width="100" height="100" fill="white"/>
<path d="M50.3013 10.4732L87.4535 37.5L13.1491 37.5L50.3013 10.4732Z" stroke="#446CA9" stroke-width="4"/>
<rect x="18" y="43" width="4" height="40" rx="2" fill="#009DDB"/>
<rect x="33" y="43" width="4" height="40" rx="2" fill="#009DDB"/>
<rect x="48" y="43" width="4" height="40" rx="2" fill="#009DDB"/>
<rect x="63" y="43" width="4" height="40" rx="2" fill="#009DDB"/>
<rect x="78" y="43" width="4" height="40" rx="2" fill="#009DDB"/>
<path d="M56.3013 26.5C56.3013 29.8137 53.615 32.5 50.3013 32.5C46.9876 32.5 44.3013 29.8137 44.3013 26.5C44.3013 23.1863 46.9876 20.5 50.3013 20.5C53.615 20.5 56.3013 23.1863 56.3013 26.5Z" fill="#E09900"/>
<rect x="11" y="87" width="78" height="4" rx="2" fill="#446CA9"/>
<rect x="8" y="95" width="84" height="4" rx="2" fill="#446CA9"/>
<circle cx="83" cy="83" r="20" fill="white"/>
<circle cx="83" cy="83" r="16" fill="#009DDB"/>
<path fill-rule="evenodd" clip-rule="evenodd" d="M96.3482 81.5134C97.231 82.3079 97.231 83.6921 96.3482 84.4866L96.2753 84.5522L96.2734 84.554L91.4135 88.9279L91.3379 88.9959C90.0509 90.1542 88 89.2408 88 87.5093V87.3739V85H78V81H88V78.6262V78.4907C88 76.7592 90.0509 75.8458 91.3379 77.0042L91.4135 77.0722L96.2734 81.446L96.2754 81.4478L96.3482 81.5134ZM70.1406 84.7022L70.1404 84.702L70.0726 84.639C69.2227 83.8499 69.2201 82.5056 70.0669 81.7131L70.1314 81.6528L70.1346 81.6497L74.6079 77.4635L74.7346 77.3449C75.9868 76.173 77.971 77.1038 77.9744 78.8648L77.9745 78.9198L77.991 87.4014V87.4029L77.9911 87.4564C77.9946 89.2175 76.0141 90.156 74.7573 88.989L74.6302 88.871L70.1406 84.7022Z" fill="white"/>
</g>
<defs>
<clipPath id="clip0_1_28">
<rect width="100" height="100" fill="white"/>
</clipPath>
</defs>
</svg>
