<svg xmlns="http://www.w3.org/2000/svg" width="88px" height="82px" viewBox="0 0 88 82" version="1.1" aria-hidden="true">
    <title>Individual Retirement Account</title>
    <g stroke="none" stroke-width="1" fill="none" fill-rule="evenodd">
        <rect fill="#FFFFFF" x="0" y="0" width="88" height="82"></rect>
        <path d="M44.5498087,1.20904348 C29.2990261,1.20904348 18.6701565,22.8914783 18.6701565,42.3522319 C18.6701565,49.5414493 20.129171,56.0062609 22.7066783,61.3206957 C24.6579826,61.8435942 26.8158957,62.2198261 29.1459826,62.4863768 C25.7522435,57.4410435 23.7716058,50.4966957 23.7716058,42.3522319 C23.7716058,23.8263188 33.8686493,6.31049275 44.5498087,6.31049275 C55.2309681,6.31049275 65.329287,23.8263188 65.329287,42.3522319 C65.329287,50.438029 63.3741565,57.3390145 60.0250551,62.3766957 C62.3538667,62.0833623 64.523258,61.6816232 66.4847652,61.1281159 C69.0048812,55.8493913 70.4294609,49.456 70.4294609,42.3522319 C70.4294609,22.8914783 59.8018667,1.20904348 44.5498087,1.20904348" id="Fill-15" fill="#2794C6"></path>
        <path d="M71.2775768,64.9031884 C48.3350841,70.3910725 28.2557797,67.3416812 17.5210551,64.7310145 C16.5096928,63.5844638 15.6245913,62.3715942 14.8861565,61.100058 C21.9389101,63.7681159 31.6635478,66.2563478 43.4287652,66.2563478 C50.4827942,66.2563478 58.2727072,65.3610435 66.649287,63.0704928 C69.2076638,62.3715942 71.771142,61.5489855 74.3320696,60.6128696 C73.5069101,62.1254493 72.4827942,63.5627826 71.2775768,64.9031884 Z M44.473287,75.5843478 C38.1729971,75.5843478 32.2935768,74.2273623 27.3234899,71.8934493 C32.4109101,72.6344348 38.2916058,73.1573333 44.7780986,73.1573333 C49.9841275,73.1573333 55.5867942,72.8015072 61.4598377,71.9712464 C56.5254609,74.257971 50.7047072,75.5843478 44.473287,75.5843478 Z M87.5741565,51.8536812 C86.9300986,50.6025507 85.3945623,50.1051594 84.1396058,50.7504928 C83.3578087,51.1522319 82.5683594,51.5093333 81.7827362,51.8881159 C81.7840116,51.803942 81.7916638,51.7197681 81.7916638,51.6343188 C81.7916638,50.2263188 80.6489391,49.0835942 79.2409391,49.0835942 C77.8316638,49.0835942 76.6902145,50.2263188 76.6902145,51.6343188 C76.6902145,52.5245217 76.6200696,53.4006957 76.491258,54.2653913 C72.7672,55.8111304 69.0265623,57.1324058 65.3037797,58.1501449 C41.3856348,64.6902029 22.3444754,58.9370435 12.4986783,54.5128116 C12.3456348,53.5690435 12.2576348,52.6086957 12.2576348,51.6343188 C12.2576348,50.2263188 11.1161855,49.0835942 9.70691014,49.0835942 C8.29891014,49.0835942 7.15618551,50.2263188 7.15618551,51.6343188 C7.15618551,51.6929855 7.16128696,51.7503768 7.16256232,51.8077681 C5.89230145,51.0757101 5.19595362,50.5974493 5.15641739,50.5681159 C4.00731594,49.7531594 2.41821449,50.026087 1.60325797,51.1713623 C0.787026087,52.3191884 1.05485217,53.9121159 2.20267826,54.7283478 C2.49218551,54.9336812 4.54296812,56.362087 8.11398261,58.1475942 C8.5578087,59.6525217 9.15085217,61.1115362 9.88291014,62.5169855 C9.4952,62.3805217 9.26053333,62.2912464 9.23502609,62.2810435 C7.92267826,61.7670725 6.4458087,62.4073043 5.92673623,63.7183768 C5.41021449,65.0268986 6.05044638,66.5088696 7.36024348,67.0253913 C7.74030145,67.1746087 10.4517217,68.2242319 14.9907362,69.4128696 C21.8241275,76.2641159 32.4950841,80.6857971 44.473287,80.6857971 C56.3889971,80.6857971 67.0102145,76.310029 73.8474319,69.52 C76.6098667,68.8185507 79.4041855,68.0252754 82.2393159,67.0713043 C83.5746203,66.6211014 84.2939246,65.1761159 83.8437217,63.8408116 C83.3960696,62.5055072 81.9485333,61.7862029 80.613229,62.2364058 C80.0520696,62.4251594 79.4960116,62.5896812 78.9374029,62.7682319 C79.7625623,61.2250435 80.4168232,59.6155362 80.8925333,57.9524638 C82.7596638,57.1222029 84.6204174,56.2383768 86.4709681,55.2895072 C87.7233739,54.6454493 88.2182145,53.1073623 87.5741565,51.8536812 L87.5741565,51.8536812 Z" id="Fill-58" fill="#3E4E56"></path>
        <path d="M45.7486493,49.8207536 C47.2344464,49.7123478 48.4065043,49.2124058 49.2673739,48.3171014 C50.1256928,47.4217971 50.5593159,46.2561159 50.5593159,44.8149565 C50.5593159,43.4273623 50.1537507,42.4096232 49.3464464,41.7706667 C48.5378667,41.1304348 47.3403014,40.6751304 45.7486493,40.4085797 L45.7486493,49.8207536 Z M43.1979246,27.7531594 C41.6330551,27.8870725 40.4482435,28.4137971 39.6383884,29.3346087 C38.827258,30.2566957 38.4267942,31.342029 38.4267942,32.5982609 C38.4267942,33.7193043 38.7800696,34.6337391 39.4802435,35.3415652 C40.1829681,36.0493913 41.4226203,36.562087 43.1979246,36.8822029 L43.1979246,27.7531594 Z M43.1979246,53.285913 C37.8541565,52.7298551 35.0521855,49.762087 34.7856348,44.3826087 L37.8949681,44.3826087 C38.1602435,47.8273623 39.929171,49.7735652 43.1979246,50.2237681 L43.1979246,39.7211594 C40.3283594,39.2747826 38.2801275,38.4917101 37.0583304,37.3693913 C35.8339826,36.2470725 35.2243594,34.6528696 35.2243594,32.5893333 C35.2243594,30.5257971 35.941113,28.7836522 37.3784464,27.3603478 C38.8106783,25.9357681 40.7517797,25.1093333 43.1979246,24.8733913 L43.1979246,21.426087 L45.7486493,21.426087 L45.7486493,24.8351304 C50.5848232,25.301913 53.1916638,27.9929275 53.5615188,32.9043478 L50.5325333,32.9043478 C50.2698087,29.7950145 48.6717797,28.0605217 45.7486493,27.6932174 L45.7486493,37.7456232 C47.9805333,38.1422609 49.609171,38.6268986 50.633287,39.1969855 C51.6548522,39.7670725 52.4200696,40.5412174 52.925113,41.5206957 C53.4301565,42.504 53.6826783,43.7347246 53.6826783,45.2192464 C53.6826783,47.4970435 52.9863304,49.3552464 51.5898087,50.8002319 C50.193287,52.243942 48.2458087,53.0729275 45.7486493,53.285913 L45.7486493,58.4115942 L43.1979246,58.4115942 L43.1979246,53.285913 L43.1979246,53.285913 Z" id="Fill-79" fill="#EAA22E"></path>
    </g>
</svg>