<svg xmlns="http://www.w3.org/2000/svg"
  xmlns:xlink="http://www.w3.org/1999/xlink" width="74px" height="100px" viewBox="0 0 74 100" version="1.1">
  <title>Trust-welcome (second draft)</title>
  <g id="Trust-welcome-(second-draft)" stroke="none" stroke-width="1" fill="none" fill-rule="evenodd">
    <g id="ICN-Flat-Light-Document-Signed-nobkg" transform="translate(-18.000000, 0.000000)">
      <g id="asset_export_edge">
        <rect id="container" x="0" y="0" width="110" height="110"></rect>
      </g>
      <g id="lineart" transform="translate(20.625000, 12.767857)">
        <rect id="Rectangle" stroke="#446CA9" stroke-width="4" fill="#FFFFFF" fill-rule="nonzero" stroke-linecap="round" stroke-linejoin="round" x="0" y="0" width="56.9642857" height="72.6785714" rx="2"></rect>
        <line x1="11.7857143" y1="11.7857143" x2="45.1785714" y2="11.7857143" id="Path" stroke="#446CA9" stroke-width="4" stroke-linecap="round"></line>
        <line x1="11.7857143" y1="25.5357143" x2="45.1785714" y2="25.5357143" id="Path" stroke="#446CA9" stroke-width="4" stroke-linecap="round"></line>
        <line x1="11.7857143" y1="39.2857143" x2="45.1785714" y2="39.2857143" id="Path" stroke="#446CA9" stroke-width="4" stroke-linecap="round"></line>
        <path d="M47.1428571,55.9821429 C47.1428571,59.7791005 44.0648148,62.8571429 40.2678571,62.8571429 C36.4708995,62.8571429 33.3928571,59.7791005 33.3928571,55.9821429 C33.3928571,52.1851852 36.4708995,49.1071429 40.2678571,49.1071429 C44.0648148,49.1071429 47.1428571,52.1851852 47.1428571,55.9821429" id="signature" fill="#E09900"></path>
      </g>
      <g id="neutral_fill" transform="translate(20.625000, 12.767857)" fill="#FFFFFF" fill-rule="nonzero">
        <rect id="fill" x="0" y="0" width="55.9821429" height="72.6785714"></rect>
      </g>
      <g id="primary" transform="translate(18.660714, 10.803571)" fill="#446CA9">
        <path d="M56.9642857,0 L3.92857143,0 C1.75888134,0 0,1.75888134 0,3.92857143 L0,72.6785714 C0,74.8482615 1.75888134,76.6071429 3.92857143,76.6071429 L56.9642857,76.6071429 C59.1339758,76.6071429 60.8928571,74.8482615 60.8928571,72.6785714 L60.8928571,3.92857143 C60.8928571,1.75888134 59.1339758,0 56.9642857,0 Z M56.9642857,72.6785714 L3.92857143,72.6785714 L3.92857143,3.92857143 L56.9642857,3.92857143 L56.9642857,72.6785714 Z" id="paper-border"></path>
        <path d="M47.3,39.2857143 C48.384845,39.2857143 49.2642857,40.165155 49.2642857,41.25 C49.2642857,42.334845 48.384845,43.2142857 47.3,43.2142857 L13.5928571,43.2142857 C12.5080121,43.2142857 11.6285714,42.334845 11.6285714,41.25 C11.6285714,40.165155 12.5080121,39.2857143 13.5928571,39.2857143 L47.3,39.2857143 Z M47.3,25.5357143 C48.384845,25.5357143 49.2642857,26.415155 49.2642857,27.5 C49.2642857,28.584845 48.384845,29.4642857 47.3,29.4642857 L13.5928571,29.4642857 C12.5080121,29.4642857 11.6285714,28.584845 11.6285714,27.5 C11.6285714,26.415155 12.5080121,25.5357143 13.5928571,25.5357143 L47.3,25.5357143 Z M47.3,11.7857143 C48.384845,11.7857143 49.2642857,12.665155 49.2642857,13.75 C49.2642857,14.834845 48.384845,15.7142857 47.3,15.7142857 L13.5928571,15.7142857 C12.5080121,15.7142857 11.6285714,14.834845 11.6285714,13.75 C11.6285714,12.665155 12.5080121,11.7857143 13.5928571,11.7857143 L47.3,11.7857143 Z" id="text"></path>
      </g>
      <g id="secondary" transform="translate(28.482143, 22.589286)" fill="#009DDB">
        <path d="M58.9285714,0 C61.0982615,0 62.8571429,1.75888134 62.8571429,3.92857143 L62.8571429,72.6785714 C62.8571429,74.8482615 61.0982615,76.6071429 58.9285714,76.6071429 L3.92857143,76.6071429 C1.75888134,76.6071429 0,74.8482615 0,72.6785714 L0,68.75 L51.0714286,68.75 C53.1666673,68.7526206 54.8952396,67.1104769 55,65.0178571 L55,0 L58.9285714,0 Z" id="back-page"></path>
      </g>
      <g id="tertiary" transform="translate(54.017857, 61.875000)" fill="#E09900">
        <path d="M13.75,6.875 C13.75,10.6719577 10.6719577,13.75 6.875,13.75 C3.07804234,13.75 -6.97854473e-15,10.6719577 -6.97854473e-15,6.875 C-6.97854473e-15,3.07804234 3.07804234,0 6.875,0 C10.6719577,0 13.75,3.07804234 13.75,6.875" id="signature-2"></path>
      </g>
    </g>
  </g>
</svg>