<svg width="80px" height="80px"    xmlns="http://www.w3.org/2000/svg" viewBox="0 0 112 112">
    <defs>
        <style>.cls-1{fill:none;}.cls-2,.cls-3{fill:#fff;}.cls-2,.cls-6{fill-rule:evenodd;}.cls-4{fill:#446ca9;}.cls-5{fill:#009ddb;}.cls-6{fill:#e09900;}</style>
    </defs>
    <g id="asset_export_edge" data-name="asset export edge">
        <rect id="container" class="cls-1" width="112" height="112"></rect>
    </g>
    <g id="neutral_fill" data-name="neutral fill">
        <path id="nest-fill" class="cls-2" d="M16.78,73.24c5.17,15.84,20,27.26,39.75,27.26,20.67,0,34.68-11.11,39.7-26.62h0a127.17,127.17,0,0,1-78.76-.41Z"></path>
        <path id="egg-fill" class="cls-3" d="M25,52.72a34.9,34.9,0,0,0,.79,7.78c.59,2.63,2.72,4.36,5.19,5.4C38.49,69,47,70,56,70s17.6-.39,25-4.1c3-1.49,4.6-2.78,5.19-5.41A34.8,34.8,0,0,0,87,52.72C87,31.72,73.12,10,56,10S25,31.72,25,52.72Z"></path>
    </g>
    <g id="primary">
        <path id="nest" class="cls-4" d="M105.76,68.05a2,2,0,0,0-2.71-.81c-.92.5-1.88,1-2.86,1.44a54.77,54.77,0,0,0,.81-7.61,2,2,0,0,0-4-.14,47.49,47.49,0,0,1-1.34,9.69c-21.17,8.19-53.86,9.91-78.27.51A40.74,40.74,0,0,1,16,61,2,2,0,0,0,12,61a46,46,0,0,0,.83,8.15c-1.32-.61-2.62-1.25-3.87-1.93A2,2,0,0,0,7,70.75a72.16,72.16,0,0,0,7,3.35,39.78,39.78,0,0,0,4.21,9.06A45.29,45.29,0,0,1,12,80.26a2,2,0,0,0-2,3.48,57.27,57.27,0,0,0,12.6,5C31.32,98.17,44.23,103,57,103c13,0,26.19-4.9,34.72-15.38a75.65,75.65,0,0,0,10.13-3.81,2,2,0,0,0-1.7-3.62c-1.49.7-3.07,1.35-4.71,2a41.57,41.57,0,0,0,3.6-8.6A64.87,64.87,0,0,0,105,70.76,2,2,0,0,0,105.76,68.05ZM57,99a44.42,44.42,0,0,1-26.26-8.36,132.34,132.34,0,0,0,23.63,2,141,141,0,0,0,29.74-3.09C76.6,96,66.72,99,57,99ZM89.26,84.15C69.65,89.7,43.4,90.07,24.87,85.22A35,35,0,0,1,19.06,76a113.88,113.88,0,0,0,36,5.47c14,0,27.84-2.19,39-6A35.35,35.35,0,0,1,89.26,84.15Z"></path>
    </g>
    <g id="secondary">
        <path id="egg" class="cls-5" d="M56,72c-10.64,0-18.84-1.35-25.79-4.26-3.49-1.46-5.7-3.81-6.37-6.8A37.17,37.17,0,0,1,23,52.72C23,31.61,37.11,8,56,8S89,31.61,89,52.72a37.77,37.77,0,0,1-.83,8.21c-.85,3.77-3.56,5.4-6.26,6.76C74,71.67,64.75,72,56,72Zm0-60C42.31,12,27,29.41,27,52.72a33.41,33.41,0,0,0,.74,7.33c.48,2.12,2.45,3.35,4,4C38.2,66.75,45.9,68,56,68c8.27,0,17-.3,24.12-3.89,2.82-1.41,3.75-2.32,4.14-4.06A33.41,33.41,0,0,0,85,52.72C85,29.41,69.69,12,56,12Z"></path>
    </g>
    <g id="tertiary">
        <path id="dollar-sign" class="cls-6" d="M57.29,24a.87.87,0,0,1,.85.89V27.2a8.05,8.05,0,0,1,4.58,2,7.19,7.19,0,0,1,2,4.61l.05.51H60.48A3.6,3.6,0,0,0,57.53,31a10.91,10.91,0,0,0-2.92-.07,3.1,3.1,0,0,0-2.88,3.31,2.59,2.59,0,0,0,.69,2,4.42,4.42,0,0,0,1.49.83l.38.12a8.72,8.72,0,0,0,1.44.34l.85.13,1,.13q3.93.54,5.7,2.19A5.91,5.91,0,0,1,65,44.5a7.43,7.43,0,0,1-2,5.42,8.28,8.28,0,0,1-4.83,2.32v2.87a.87.87,0,0,1-.85.89H54.71a.87.87,0,0,1-.85-.89V52.18A8.05,8.05,0,0,1,49,49.94a8,8,0,0,1-2-4.82l0-.51h4.34a4.26,4.26,0,0,0,1,2.66,4.13,4.13,0,0,0,3,1.18,8.78,8.78,0,0,0,2.21-.1q3.06-.49,3.06-3.27a2.5,2.5,0,0,0-.7-1.94,3.39,3.39,0,0,0-1.11-.65l-.32-.11-.53-.16-.63-.14-.79-.15-.74-.12-1.16-.15c-2.6-.4-4.45-1.18-5.56-2.32a6.65,6.65,0,0,1-1.67-4.84,6.94,6.94,0,0,1,1.95-5,7.73,7.73,0,0,1,4.52-2.26V24.89a.87.87,0,0,1,.85-.89Z"></path>
    </g>
</svg>