<svg width="100" height="100" viewBox="0 0 100 100" fill="none" xmlns="http://www.w3.org/2000/svg">
<rect width="100" height="100" fill="white"/>
<path d="M32.9786 68.6397C31.292 72.8849 29.1474 76.7534 26.9609 79.2963C25.8643 80.5717 24.8445 81.4106 23.965 81.8424C23.1267 82.2541 22.5225 82.2542 22.0261 82.057C21.4593 81.8318 20.7839 81.25 20.1493 80.1063C19.5238 78.979 19.0247 77.4529 18.7437 75.6414C18.1811 72.0137 18.5408 67.551 20.1354 63.5372C21.774 59.413 24.1009 56.1211 26.4438 54.1078C28.8676 52.0249 30.8463 51.6521 32.0953 52.1484C33.3444 52.6446 34.5277 54.2737 34.8613 57.452C35.1837 60.5242 34.6171 64.5155 32.9786 68.6397Z" fill="white" stroke="#446CA9" stroke-width="4"/>
<path d="M67.1354 68.6397C68.822 72.8849 70.9666 76.7534 73.1531 79.2963C74.2497 80.5717 75.2695 81.4106 76.149 81.8424C76.9873 82.2541 77.5915 82.2542 78.0879 82.057C78.6547 81.8318 79.3301 81.25 79.9647 80.1063C80.5902 78.979 81.0893 77.4529 81.3703 75.6414C81.9329 72.0137 81.5732 67.551 79.9786 63.5372C78.34 59.413 76.0131 56.1211 73.6702 54.1078C71.2464 52.0249 69.2677 51.6521 68.0187 52.1484C66.7696 52.6446 65.5863 54.2737 65.2527 57.452C64.9303 60.5242 65.4969 64.5155 67.1354 68.6397Z" fill="white" stroke="#446CA9" stroke-width="4"/>
<path d="M68 50C68 60.8025 65.8064 70.4835 62.3533 77.3898C58.8403 84.4158 54.3572 88 50 88C45.6428 88 41.1597 84.4158 37.6467 77.3898C34.1935 70.4835 32 60.8025 32 50C32 39.1975 34.1935 29.5165 37.6467 22.6102C41.1597 15.5842 45.6428 12 50 12C54.3572 12 58.8403 15.5842 62.3533 22.6102C65.8064 29.5165 68 39.1975 68 50Z" fill="white" stroke="#446CA9" stroke-width="4"/>
<rect x="35" y="72" width="30" height="4" rx="2" fill="#446CA9"/>
<rect x="34" y="76" width="32" height="15" fill="white"/>
<path d="M36 82C36 80.8954 36.8954 80 38 80H62C63.1046 80 64 80.8954 64 82V82C64 83.1046 63.1046 84 62 84H38C36.8954 84 36 83.1046 36 82V82Z" fill="#009DDB"/>
<path d="M51.4314 97.6024C50.6515 98.3838 49.3859 98.3855 48.604 97.6061L42.1683 91.1919C40.906 89.9338 41.7953 87.7776 43.5775 87.7753L56.4322 87.7586C58.2144 87.7562 59.1094 89.9101 57.8504 91.1714L51.4314 97.6024Z" fill="#E09900"/>
<circle cx="50" cy="35" r="7" fill="white" stroke="#009DDB" stroke-width="4"/>
</svg>
