<?xml version="1.0" encoding="UTF-8"?>
<svg width="74px" height="78px" viewBox="0 0 74 78" version="1.1" xmlns="http://www.w3.org/2000/svg" xmlns:xlink="http://www.w3.org/1999/xlink">
    <title>Schwab Safe Icon</title>
    <g id="ICN-SchwabSafe" stroke="none" stroke-width="1" fill="none" fill-rule="evenodd">
        <path d="M28.816,32.927 L28.816,26.712 C28.816,22.159 32.508,18.47 37.059,18.47 C41.611,18.47 45.301,22.159 45.301,26.712 L45.301,32.927" id="Stroke-1" stroke="#3F4C56" stroke-width="3" stroke-linejoin="round"></path>
        <path d="M50.109,52.539 C50.109,54.175 48.783,55.503 47.146,55.503 L26.973,55.503 C25.334,55.503 24.008,54.175 24.008,52.539 L24.008,35.745 C24.008,34.108 25.334,32.782 26.973,32.782 L47.146,32.782 C48.783,32.782 50.109,34.108 50.109,35.745 L50.109,52.539 Z" id="Stroke-2" stroke="#3F4C56" stroke-width="3"></path>
        <path d="M35.656,43.768 L35.656,47.56 C35.656,48.349 36.293,48.985 37.08,48.985 C37.869,48.985 38.506,48.349 38.506,47.56 L38.506,43.736 L38.508,43.737 C39.5,43.216 40.174,42.177 40.174,40.979 C40.174,39.259 38.779,37.863 37.059,37.863 C35.338,37.863 33.943,39.259 33.943,40.979 C33.943,42.193 34.637,43.245 35.65,43.759 L35.656,43.768" id="Fill-3" fill="#3F4C56"></path>
        <path d="M37.059,75.874 C50.996,70.839 59.9,61.999 64.715,51.581 C71.613,36.647 70.326,10.644 70.326,10.644 C49.645,10.644 37.059,2.687 37.059,2.687 C37.059,2.687 24.473,10.644 3.791,10.644 C3.791,10.644 2.506,36.647 9.402,51.581 C14.215,61.999 23.123,70.839 37.059,75.874 Z" id="Stroke-4" stroke="#0095C8" stroke-width="4"></path>
    </g>
</svg>